<svg width="40" height="32" viewBox="0 0 40 32" fill="none" xmlns="http://www.w3.org/2000/svg">
<rect width="40" height="32" rx="16" fill="#3B3B3B"/>
<path d="M17.248 14.064C17.248 13.3707 17.0347 12.816 16.608 12.4C16.1813 11.9733 15.5893 11.76 14.832 11.76C14.4693 11.76 14.1333 11.824 13.824 11.952C13.5253 12.08 13.264 12.2667 13.04 12.512C12.8267 12.7467 12.656 13.0293 12.528 13.36C12.4107 13.6907 12.352 14.0533 12.352 14.448V16.112H12.544C12.8 15.6427 13.1627 15.2747 13.632 15.008C14.112 14.7413 14.6453 14.608 15.232 14.608C15.744 14.608 16.2187 14.6933 16.656 14.864C17.0933 15.024 17.4667 15.264 17.776 15.584C18.096 15.904 18.3413 16.2933 18.512 16.752C18.6933 17.2 18.784 17.712 18.784 18.288V18.48C18.784 19.0347 18.6827 19.5413 18.48 20C18.288 20.4587 18.016 20.8533 17.664 21.184C17.3227 21.5147 16.912 21.7707 16.432 21.952C15.9627 22.1333 15.4507 22.224 14.896 22.224C14.3413 22.224 13.824 22.1333 13.344 21.952C12.8747 21.7707 12.464 21.52 12.112 21.2C11.7707 20.8693 11.4987 20.48 11.296 20.032C11.104 19.5733 11.008 19.072 11.008 18.528V14.448C11.008 13.8613 11.1093 13.328 11.312 12.848C11.5147 12.368 11.792 11.9627 12.144 11.632C12.496 11.2907 12.9013 11.0293 13.36 10.848C13.8293 10.6667 14.3307 10.576 14.864 10.576C15.3973 10.576 15.8933 10.656 16.352 10.816C16.8107 10.976 17.2053 11.2107 17.536 11.52C17.8667 11.8187 18.1227 12.1867 18.304 12.624C18.496 13.0507 18.592 13.5307 18.592 14.064H17.248ZM14.896 21.04C15.28 21.04 15.6267 20.9813 15.936 20.864C16.256 20.736 16.528 20.56 16.752 20.336C16.976 20.112 17.1467 19.8453 17.264 19.536C17.3813 19.2267 17.44 18.8853 17.44 18.512V18.32C17.44 17.9467 17.376 17.6053 17.248 17.296C17.12 16.9867 16.944 16.72 16.72 16.496C16.496 16.272 16.224 16.1013 15.904 15.984C15.5947 15.856 15.2587 15.792 14.896 15.792C14.5333 15.792 14.1973 15.856 13.888 15.984C13.5787 16.112 13.3067 16.288 13.072 16.512C12.848 16.736 12.672 16.9973 12.544 17.296C12.416 17.5947 12.352 17.9147 12.352 18.256V18.56C12.352 18.912 12.4107 19.2427 12.528 19.552C12.6453 19.8507 12.816 20.112 13.04 20.336C13.264 20.56 13.5307 20.736 13.84 20.864C14.16 20.9813 14.512 21.04 14.896 21.04ZM20.9489 10.8H28.4369V12.752L23.7169 19.888C23.4929 20.2293 23.3222 20.5227 23.2049 20.768C23.0875 21.0133 23.0289 21.264 23.0289 21.52V22H21.7169V21.424C21.7169 21.232 21.7329 21.0507 21.7649 20.88C21.8075 20.7093 21.8662 20.5387 21.9409 20.368C22.0262 20.1867 22.1275 20 22.2449 19.808C22.3729 19.6053 22.5222 19.376 22.6929 19.12L27.2849 12.24V12.048H20.9489V10.8Z" fill="white"/>
</svg>
