<svg width="599" height="80" viewBox="0 0 599 80" fill="none" xmlns="http://www.w3.org/2000/svg">
<path d="M1.012 23.228H2.464V13.372H1.012V10.6H7.766C8.49933 10.6 9.14467 10.7027 9.702 10.908C10.274 11.1133 10.7507 11.392 11.132 11.744C11.528 12.096 11.8213 12.5213 12.012 13.02C12.2173 13.504 12.32 14.032 12.32 14.604V14.868C12.32 15.748 12.0707 16.452 11.572 16.98C11.088 17.508 10.472 17.8747 9.724 18.08V18.476C10.472 18.6813 11.088 19.0553 11.572 19.598C12.0707 20.126 12.32 20.83 12.32 21.71V21.974C12.32 22.546 12.2173 23.0813 12.012 23.58C11.8213 24.064 11.528 24.4893 11.132 24.856C10.7507 25.208 10.274 25.4867 9.702 25.692C9.14467 25.8973 8.49933 26 7.766 26H1.012V23.228ZM5.368 23.228H7.48C8.096 23.228 8.59467 23.096 8.976 22.832C9.35733 22.568 9.548 22.128 9.548 21.512V21.38C9.548 20.764 9.35733 20.324 8.976 20.06C8.59467 19.796 8.096 19.664 7.48 19.664H5.368V23.228ZM5.368 16.892H7.48C8.096 16.892 8.59467 16.7673 8.976 16.518C9.35733 16.254 9.548 15.814 9.548 15.198V15.066C9.548 14.45 9.35733 14.0173 8.976 13.768C8.59467 13.504 8.096 13.372 7.48 13.372H5.368V16.892ZM15.3847 23.36H19.0807V17.728H15.6487V15.088H21.8527V23.36H25.0207V26H15.3847V23.36ZM22.5347 11.854C22.5347 12.1473 22.476 12.426 22.3587 12.69C22.256 12.9393 22.1094 13.1593 21.9187 13.35C21.728 13.526 21.5007 13.6727 21.2367 13.79C20.9874 13.8927 20.7234 13.944 20.4447 13.944C20.1514 13.944 19.88 13.8927 19.6307 13.79C19.3814 13.6727 19.1614 13.526 18.9707 13.35C18.78 13.1593 18.626 12.9393 18.5087 12.69C18.406 12.426 18.3547 12.1473 18.3547 11.854C18.3547 11.5607 18.406 11.2893 18.5087 11.04C18.626 10.776 18.78 10.556 18.9707 10.38C19.1614 10.1893 19.3814 10.0427 19.6307 9.94C19.88 9.82267 20.1514 9.764 20.4447 9.764C20.7234 9.764 20.9874 9.82267 21.2367 9.94C21.5007 10.0427 21.728 10.1893 21.9187 10.38C22.1094 10.556 22.256 10.776 22.3587 11.04C22.476 11.2893 22.5347 11.5607 22.5347 11.854ZM39.3494 20.676C39.3494 21.5853 39.1954 22.392 38.8874 23.096C38.5794 23.7853 38.1614 24.372 37.6334 24.856C37.1054 25.3253 36.4967 25.6847 35.8074 25.934C35.1327 26.1833 34.4214 26.308 33.6734 26.308C32.9254 26.308 32.2067 26.1833 31.5174 25.934C30.8427 25.6847 30.2414 25.3253 29.7134 24.856C29.1854 24.372 28.7674 23.7853 28.4594 23.096C28.1514 22.392 27.9974 21.5853 27.9974 20.676V20.412C27.9974 19.5173 28.1514 18.7253 28.4594 18.036C28.7674 17.332 29.1854 16.738 29.7134 16.254C30.2414 15.77 30.8427 15.4033 31.5174 15.154C32.2067 14.9047 32.9254 14.78 33.6734 14.78C34.4214 14.78 35.1327 14.9047 35.8074 15.154C36.4967 15.4033 37.1054 15.77 37.6334 16.254C38.1614 16.738 38.5794 17.332 38.8874 18.036C39.1954 18.7253 39.3494 19.5173 39.3494 20.412V20.676ZM33.6734 23.668C34.0694 23.668 34.4434 23.602 34.7954 23.47C35.1474 23.338 35.4554 23.1473 35.7194 22.898C35.9834 22.6487 36.1887 22.348 36.3354 21.996C36.4967 21.6293 36.5774 21.2187 36.5774 20.764V20.324C36.5774 19.8693 36.4967 19.466 36.3354 19.114C36.1887 18.7473 35.9834 18.4393 35.7194 18.19C35.4554 17.9407 35.1474 17.75 34.7954 17.618C34.4434 17.486 34.0694 17.42 33.6734 17.42C33.2774 17.42 32.9034 17.486 32.5514 17.618C32.1994 17.75 31.8914 17.9407 31.6274 18.19C31.3634 18.4393 31.1507 18.7473 30.9894 19.114C30.8427 19.466 30.7694 19.8693 30.7694 20.324V20.764C30.7694 21.2187 30.8427 21.6293 30.9894 21.996C31.1507 22.348 31.3634 22.6487 31.6274 22.898C31.8914 23.1473 32.1994 23.338 32.5514 23.47C32.9034 23.602 33.2774 23.668 33.6734 23.668Z" fill="#858584"/>
<path d="M12.584 55.48H0.704V57.13H5.764V70H7.524V57.13H12.584V55.48ZM20.2397 58.78C18.7437 58.78 17.4237 59.33 16.6537 60.65V53.94H14.8937V70H16.6537V64.17C16.6537 61.354 18.4577 60.32 20.0637 60.32C21.5817 60.32 22.7697 61.134 22.7697 63.576V70H24.5297V62.96C24.5297 60.122 22.5937 58.78 20.2397 58.78ZM37.9528 63.928C37.9528 61.09 36.2148 58.78 33.0248 58.78C29.7027 58.78 27.8328 60.936 27.8328 64.5C27.8328 68.064 29.8348 70.22 33.1568 70.22C35.5328 70.22 36.8968 69.318 37.7328 67.822L36.2588 67.052C35.8628 68.108 34.7628 68.68 33.1568 68.68C31.1328 68.68 29.7908 67.382 29.5708 65.16H37.8648C37.9088 64.852 37.9528 64.434 37.9528 63.928ZM33.0248 60.32C34.8948 60.32 36.0168 61.574 36.2588 63.598H29.5928C29.8568 61.53 31.0668 60.32 33.0248 60.32ZM50.886 55.48H49.126V70H50.886V55.48ZM60.5443 58.78C59.0263 58.78 57.6183 59.33 56.8483 60.716L56.7383 59H55.1983V70H56.9583V64.148C56.9583 61.332 58.7623 60.32 60.3683 60.32C61.8863 60.32 63.0743 61.134 63.0743 63.576V70H64.8343V62.96C64.8343 60.122 62.8983 58.78 60.5443 58.78ZM74.785 67.756C74.279 68.262 73.707 68.57 72.915 68.57C71.947 68.57 71.265 68.042 71.265 66.964V60.518H75.335V59H71.265V55.876L69.505 56.36V59H67.305V60.518H69.505V67.272C69.527 69.406 70.935 70.22 72.563 70.22C73.773 70.22 74.719 69.846 75.401 69.23L74.785 67.756ZM87.3238 63.928C87.3238 61.09 85.5858 58.78 82.3958 58.78C79.0738 58.78 77.2038 60.936 77.2038 64.5C77.2038 68.064 79.2058 70.22 82.5278 70.22C84.9038 70.22 86.2678 69.318 87.1038 67.822L85.6298 67.052C85.2338 68.108 84.1338 68.68 82.5278 68.68C80.5038 68.68 79.1618 67.382 78.9418 65.16H87.2358C87.2798 64.852 87.3238 64.434 87.3238 63.928ZM82.3958 60.32C84.2658 60.32 85.3878 61.574 85.6298 63.598H78.9638C79.2278 61.53 80.4378 60.32 82.3958 60.32ZM95.861 58.78C94.145 58.78 92.957 59.462 92.341 60.804L92.099 59H90.669V70H92.429V64.06C92.429 61.596 94.013 60.43 95.333 60.43C95.905 60.43 96.389 60.54 96.719 60.716L97.071 59C96.741 58.824 96.235 58.78 95.861 58.78ZM104.996 58.78C103.478 58.78 102.07 59.33 101.3 60.716L101.19 59H99.6495V70H101.41V64.148C101.41 61.332 103.214 60.32 104.82 60.32C106.338 60.32 107.526 61.134 107.526 63.576V70H109.286V62.96C109.286 60.122 107.35 58.78 104.996 58.78ZM122.709 63.928C122.709 61.09 120.971 58.78 117.781 58.78C114.459 58.78 112.589 60.936 112.589 64.5C112.589 68.064 114.591 70.22 117.913 70.22C120.289 70.22 121.653 69.318 122.489 67.822L121.015 67.052C120.619 68.108 119.519 68.68 117.913 68.68C115.889 68.68 114.547 67.382 114.327 65.16H122.621C122.665 64.852 122.709 64.434 122.709 63.928ZM117.781 60.32C119.651 60.32 120.773 61.574 121.015 63.598H114.349C114.613 61.53 115.823 60.32 117.781 60.32ZM131.848 67.756C131.342 68.262 130.77 68.57 129.978 68.57C129.01 68.57 128.328 68.042 128.328 66.964V60.518H132.398V59H128.328V55.876L126.568 56.36V59H124.368V60.518H126.568V67.272C126.59 69.406 127.998 70.22 129.626 70.22C130.836 70.22 131.782 69.846 132.464 69.23L131.848 67.756ZM136.642 54.82H134.706V60.254H136.07L136.642 54.82ZM143.565 70.22C146.381 70.22 148.163 68.878 148.163 66.964C148.163 65.16 147.063 64.236 143.983 63.73C141.739 63.356 141.013 62.872 141.013 61.926C141.013 61.112 142.113 60.32 143.587 60.32C144.973 60.32 145.963 60.848 146.447 62.3L147.943 61.42C147.327 59.616 145.941 58.78 143.587 58.78C140.903 58.78 139.253 60.298 139.253 62.08C139.253 63.928 140.397 64.786 143.521 65.358C145.721 65.754 146.403 66.238 146.403 67.052C146.403 67.954 145.545 68.68 143.741 68.68C142.157 68.68 140.793 68.086 140.265 66.744L138.835 67.734C139.671 69.428 141.541 70.22 143.565 70.22ZM169.419 57.13V55.48H159.255V70H161.015V63.466H167.571V61.816H161.015V57.13H169.419ZM176.642 58.78C174.926 58.78 173.738 59.462 173.122 60.804L172.88 59H171.45V70H173.21V64.06C173.21 61.596 174.794 60.43 176.114 60.43C176.686 60.43 177.17 60.54 177.5 60.716L177.852 59C177.522 58.824 177.016 58.78 176.642 58.78ZM181.311 56.888C182.103 56.888 182.631 56.36 182.631 55.568C182.631 54.776 182.103 54.248 181.311 54.248C180.519 54.248 179.991 54.776 179.991 55.568C179.991 56.36 180.519 56.888 181.311 56.888ZM182.191 59H180.431V70H182.191V59ZM195.713 63.928C195.713 61.09 193.975 58.78 190.785 58.78C187.463 58.78 185.593 60.936 185.593 64.5C185.593 68.064 187.595 70.22 190.917 70.22C193.293 70.22 194.657 69.318 195.493 67.822L194.019 67.052C193.623 68.108 192.523 68.68 190.917 68.68C188.893 68.68 187.551 67.382 187.331 65.16H195.625C195.669 64.852 195.713 64.434 195.713 63.928ZM190.785 60.32C192.655 60.32 193.777 61.574 194.019 63.598H187.353C187.617 61.53 188.827 60.32 190.785 60.32ZM204.404 58.78C202.886 58.78 201.478 59.33 200.708 60.716L200.598 59H199.058V70H200.818V64.148C200.818 61.332 202.622 60.32 204.228 60.32C205.746 60.32 206.934 61.134 206.934 63.576V70H208.694V62.96C208.694 60.122 206.758 58.78 204.404 58.78ZM220.687 53.94V60.716C220.005 59.572 218.685 58.78 217.035 58.78C213.977 58.78 212.019 60.914 212.019 64.5C212.019 68.086 213.977 70.22 217.035 70.22C218.773 70.22 220.159 69.34 220.797 68.086L220.907 70H222.447V53.94H220.687ZM217.233 68.68C215.077 68.68 213.779 67.052 213.779 64.5C213.779 61.948 215.077 60.32 217.233 60.32C219.323 60.32 220.687 61.882 220.687 64.368V64.632C220.687 67.118 219.323 68.68 217.233 68.68ZM228.208 53.94H226.448V67.272C226.448 69.274 227.306 70.22 229.088 70.22C229.66 70.22 230.254 70.11 230.716 69.912L231.002 68.218C230.364 68.46 229.99 68.526 229.396 68.526C228.494 68.526 228.208 68.174 228.208 67.052V53.94ZM234.141 56.888C234.933 56.888 235.461 56.36 235.461 55.568C235.461 54.776 234.933 54.248 234.141 54.248C233.349 54.248 232.821 54.776 232.821 55.568C232.821 56.36 233.349 56.888 234.141 56.888ZM235.021 59H233.261V70H235.021V59ZM248.543 63.928C248.543 61.09 246.805 58.78 243.615 58.78C240.293 58.78 238.423 60.936 238.423 64.5C238.423 68.064 240.425 70.22 243.747 70.22C246.123 70.22 247.487 69.318 248.323 67.822L246.849 67.052C246.453 68.108 245.353 68.68 243.747 68.68C241.723 68.68 240.381 67.382 240.161 65.16H248.455C248.499 64.852 248.543 64.434 248.543 63.928ZM243.615 60.32C245.485 60.32 246.607 61.574 246.849 63.598H240.183C240.447 61.53 241.657 60.32 243.615 60.32ZM255.628 70.22C258.444 70.22 260.226 68.878 260.226 66.964C260.226 65.16 259.126 64.236 256.046 63.73C253.802 63.356 253.076 62.872 253.076 61.926C253.076 61.112 254.176 60.32 255.65 60.32C257.036 60.32 258.026 60.848 258.51 62.3L260.006 61.42C259.39 59.616 258.004 58.78 255.65 58.78C252.966 58.78 251.316 60.298 251.316 62.08C251.316 63.928 252.46 64.786 255.584 65.358C257.784 65.754 258.466 66.238 258.466 67.052C258.466 67.954 257.608 68.68 255.804 68.68C254.22 68.68 252.856 68.086 252.328 66.744L250.898 67.734C251.734 69.428 253.604 70.22 255.628 70.22ZM269.605 67.756C269.099 68.262 268.527 68.57 267.735 68.57C266.767 68.57 266.085 68.042 266.085 66.964V60.518H270.155V59H266.085V55.876L264.325 56.36V59H262.125V60.518H264.325V67.272C264.347 69.406 265.755 70.22 267.383 70.22C268.593 70.22 269.539 69.846 270.221 69.23L269.605 67.756ZM285.22 55.48H280.534V70H285.22C289.774 70 292.524 67.404 292.524 62.74C292.524 58.076 289.774 55.48 285.22 55.48ZM285.396 68.35H282.294V57.13H285.396C288.718 57.13 290.676 59.22 290.676 62.74C290.676 66.26 288.718 68.35 285.396 68.35ZM305.498 63.928C305.498 61.09 303.76 58.78 300.57 58.78C297.248 58.78 295.378 60.936 295.378 64.5C295.378 68.064 297.38 70.22 300.702 70.22C303.078 70.22 304.442 69.318 305.278 67.822L303.804 67.052C303.408 68.108 302.308 68.68 300.702 68.68C298.678 68.68 297.336 67.382 297.116 65.16H305.41C305.454 64.852 305.498 64.434 305.498 63.928ZM300.57 60.32C302.44 60.32 303.562 61.574 303.804 63.598H297.138C297.402 61.53 298.612 60.32 300.57 60.32ZM312.583 70.22C315.399 70.22 317.181 68.878 317.181 66.964C317.181 65.16 316.081 64.236 313.001 63.73C310.757 63.356 310.031 62.872 310.031 61.926C310.031 61.112 311.131 60.32 312.605 60.32C313.991 60.32 314.981 60.848 315.465 62.3L316.961 61.42C316.345 59.616 314.959 58.78 312.605 58.78C309.921 58.78 308.271 60.298 308.271 62.08C308.271 63.928 309.415 64.786 312.539 65.358C314.739 65.754 315.421 66.238 315.421 67.052C315.421 67.954 314.563 68.68 312.759 68.68C311.175 68.68 309.811 68.086 309.283 66.744L307.853 67.734C308.689 69.428 310.559 70.22 312.583 70.22ZM321.324 56.888C322.116 56.888 322.644 56.36 322.644 55.568C322.644 54.776 322.116 54.248 321.324 54.248C320.532 54.248 320.004 54.776 320.004 55.568C320.004 56.36 320.532 56.888 321.324 56.888ZM322.204 59H320.444V70H322.204V59ZM332.426 68.592H328.774C327.916 68.592 327.322 68.174 327.322 67.404C327.322 66.656 327.674 66.216 328.554 66.018C329.038 66.15 329.61 66.216 330.248 66.216C332.888 66.216 334.758 64.676 334.758 62.498C334.758 61.354 334.252 60.386 333.372 59.726C333.68 58.934 334.516 58.516 335.99 58.516L335.594 56.976C333.944 56.976 332.91 57.702 332.492 59.22C331.832 58.934 331.084 58.78 330.248 58.78C327.608 58.78 325.738 60.32 325.738 62.498C325.738 63.774 326.288 64.852 327.344 65.512C326.376 65.842 325.694 66.524 325.694 67.668C325.694 68.636 326.354 69.296 327.19 69.692C325.98 70.022 325.254 70.814 325.254 71.826C325.254 73.476 326.838 74.73 330.314 74.73C333.284 74.73 335.748 73.388 335.748 71.21C335.748 69.626 334.516 68.592 332.426 68.592ZM330.248 60.21C331.766 60.21 332.932 61.134 332.932 62.498C332.932 63.862 331.766 64.786 330.248 64.786C328.73 64.786 327.564 63.862 327.564 62.498C327.564 61.134 328.73 60.21 330.248 60.21ZM330.512 73.256C328.092 73.256 326.882 72.552 326.882 71.474C326.882 70.638 327.608 70.11 328.994 70.11H331.942C333.592 70.11 334.12 70.616 334.12 71.408C334.12 72.376 332.844 73.256 330.512 73.256ZM343.708 58.78C342.19 58.78 340.782 59.33 340.012 60.716L339.902 59H338.362V70H340.122V64.148C340.122 61.332 341.926 60.32 343.532 60.32C345.05 60.32 346.238 61.134 346.238 63.576V70H347.998V62.96C347.998 60.122 346.062 58.78 343.708 58.78ZM361.422 63.928C361.422 61.09 359.684 58.78 356.494 58.78C353.171 58.78 351.302 60.936 351.302 64.5C351.302 68.064 353.304 70.22 356.626 70.22C359.002 70.22 360.366 69.318 361.202 67.822L359.728 67.052C359.332 68.108 358.232 68.68 356.626 68.68C354.602 68.68 353.26 67.382 353.04 65.16H361.334C361.378 64.852 361.422 64.434 361.422 63.928ZM356.494 60.32C358.364 60.32 359.486 61.574 359.728 63.598H353.062C353.326 61.53 354.536 60.32 356.494 60.32ZM369.959 58.78C368.243 58.78 367.055 59.462 366.439 60.804L366.197 59H364.767V70H366.527V64.06C366.527 61.596 368.111 60.43 369.431 60.43C370.003 60.43 370.487 60.54 370.817 60.716L371.169 59C370.839 58.824 370.333 58.78 369.959 58.78ZM390.388 70H392.5L386.648 61.398L392.434 55.48H390.124L382.82 62.96V55.48H381.06V70H382.82V65.336L385.416 62.696L390.388 70ZM396.047 56.888C396.839 56.888 397.367 56.36 397.367 55.568C397.367 54.776 396.839 54.248 396.047 54.248C395.255 54.248 394.727 54.776 394.727 55.568C394.727 56.36 395.255 56.888 396.047 56.888ZM396.927 59H395.167V70H396.927V59ZM409.019 53.94V60.716C408.337 59.572 407.017 58.78 405.367 58.78C402.309 58.78 400.351 60.914 400.351 64.5C400.351 68.086 402.309 70.22 405.367 70.22C407.105 70.22 408.491 69.34 409.129 68.086L409.239 70H410.779V53.94H409.019ZM405.565 68.68C403.409 68.68 402.111 67.052 402.111 64.5C402.111 61.948 403.409 60.32 405.565 60.32C407.655 60.32 409.019 61.882 409.019 64.368V64.632C409.019 67.118 407.655 68.68 405.565 68.68ZM415.748 67.36C414.89 67.36 414.318 67.932 414.318 68.79C414.318 69.648 414.89 70.22 415.748 70.22C416.606 70.22 417.178 69.648 417.178 68.79C417.178 67.932 416.606 67.36 415.748 67.36Z" fill="white"/>
</svg>
