<svg width="599" height="77" viewBox="0 0 599 77" fill="none" xmlns="http://www.w3.org/2000/svg">
<path d="M1.804 10.6H4.708V23.228H11.704V26H1.804V10.6ZM15.3847 23.36H19.0807V17.728H15.6487V15.088H21.8527V23.36H25.0207V26H15.3847V23.36ZM22.5347 11.854C22.5347 12.1473 22.476 12.426 22.3587 12.69C22.256 12.9393 22.1094 13.1593 21.9187 13.35C21.728 13.526 21.5007 13.6727 21.2367 13.79C20.9874 13.8927 20.7234 13.944 20.4447 13.944C20.1514 13.944 19.88 13.8927 19.6307 13.79C19.3814 13.6727 19.1614 13.526 18.9707 13.35C18.78 13.1593 18.626 12.9393 18.5087 12.69C18.406 12.426 18.3547 12.1473 18.3547 11.854C18.3547 11.5607 18.406 11.2893 18.5087 11.04C18.626 10.776 18.78 10.556 18.9707 10.38C19.1614 10.1893 19.3814 10.0427 19.6307 9.94C19.88 9.82267 20.1514 9.764 20.4447 9.764C20.7234 9.764 20.9874 9.82267 21.2367 9.94C21.5007 10.0427 21.728 10.1893 21.9187 10.38C22.1094 10.556 22.256 10.776 22.3587 11.04C22.476 11.2893 22.5347 11.5607 22.5347 11.854ZM31.4294 26H28.6574V15.088H31.4294V16.716H31.8254C32.0747 16.1 32.4781 15.6233 33.0354 15.286C33.5927 14.9487 34.2454 14.78 34.9934 14.78C35.5214 14.78 36.0127 14.868 36.4674 15.044C36.9367 15.2053 37.3474 15.462 37.6994 15.814C38.0514 16.166 38.3227 16.6133 38.5134 17.156C38.7187 17.6987 38.8214 18.344 38.8214 19.092V26H36.0494V19.796C36.0494 19.0187 35.8587 18.41 35.4774 17.97C35.1107 17.5153 34.5754 17.288 33.8714 17.288C33.0501 17.288 32.4341 17.5667 32.0234 18.124C31.6274 18.6667 31.4294 19.4 31.4294 20.324V26ZM45.7801 19.092H46.3081L49.2121 15.088H52.2481V15.22L48.7281 20.214V20.61L52.6001 25.868V26H49.4321L46.3081 21.732H45.7801V26H43.0081V10.6H45.7801V19.092ZM59.0748 18.168C59.0748 18.52 59.2581 18.7767 59.6248 18.938C59.9915 19.0847 60.6588 19.2093 61.6268 19.312C62.7415 19.4293 63.6508 19.7667 64.3548 20.324C65.0588 20.8667 65.4108 21.6293 65.4108 22.612V22.744C65.4108 23.8293 65.0148 24.6947 64.2228 25.34C63.4308 25.9853 62.3161 26.308 60.8788 26.308C60.0281 26.308 59.3021 26.198 58.7008 25.978C58.0995 25.758 57.6008 25.4867 57.2048 25.164C56.8088 24.8267 56.5008 24.46 56.2808 24.064C56.0755 23.6533 55.9361 23.2573 55.8628 22.876L58.4148 22.04C58.5321 22.5093 58.7741 22.92 59.1408 23.272C59.5221 23.624 60.1015 23.8 60.8788 23.8C61.5681 23.8 62.0375 23.6973 62.2868 23.492C62.5508 23.272 62.6828 23.0373 62.6828 22.788C62.6828 22.6413 62.6461 22.5093 62.5728 22.392C62.5141 22.26 62.3968 22.1427 62.2208 22.04C62.0448 21.9227 61.8028 21.8273 61.4948 21.754C61.2015 21.6807 60.8275 21.622 60.3728 21.578C59.1408 21.4753 58.1581 21.16 57.4248 20.632C56.7061 20.0893 56.3468 19.2973 56.3468 18.256V18.124C56.3468 17.5813 56.4641 17.1047 56.6988 16.694C56.9335 16.2833 57.2415 15.9387 57.6228 15.66C58.0041 15.3667 58.4441 15.1467 58.9428 15C59.4415 14.8533 59.9548 14.78 60.4828 14.78C61.1721 14.78 61.7661 14.868 62.2648 15.044C62.7781 15.2053 63.2108 15.4253 63.5628 15.704C63.9148 15.968 64.2008 16.2687 64.4208 16.606C64.6408 16.9287 64.8095 17.244 64.9268 17.552L62.4188 18.564C62.2868 18.168 62.0595 17.86 61.7368 17.64C61.4141 17.4053 60.9961 17.288 60.4828 17.288C60.0135 17.288 59.6615 17.376 59.4268 17.552C59.1921 17.7133 59.0748 17.9187 59.0748 18.168Z" fill="#858584"/>
<path fill-rule="evenodd" clip-rule="evenodd" d="M16 50C9.92487 50 5 54.9249 5 61C5 67.0751 9.92487 72 16 72C22.0751 72 27 67.0751 27 61C27 54.9249 22.0751 50 16 50ZM3 61C3 53.8203 8.8203 48 16 48C23.1797 48 29 53.8203 29 61C29 68.1797 23.1797 74 16 74C8.8203 74 3 68.1797 3 61Z" fill="#858584"/>
<path fill-rule="evenodd" clip-rule="evenodd" d="M3.6875 57C3.6875 56.4477 4.13522 56 4.6875 56H27.3125C27.8648 56 28.3125 56.4477 28.3125 57C28.3125 57.5523 27.8648 58 27.3125 58H4.6875C4.13522 58 3.6875 57.5523 3.6875 57Z" fill="#858584"/>
<path fill-rule="evenodd" clip-rule="evenodd" d="M3.6875 65C3.6875 64.4477 4.13522 64 4.6875 64H27.3125C27.8648 64 28.3125 64.4477 28.3125 65C28.3125 65.5523 27.8648 66 27.3125 66H4.6875C4.13522 66 3.6875 65.5523 3.6875 65Z" fill="#858584"/>
<path fill-rule="evenodd" clip-rule="evenodd" d="M13.3837 53.1384C12.5439 55.0995 12 57.8783 12 61.0002C12 64.1221 12.5439 66.9009 13.3837 68.862C13.8044 69.8443 14.2797 70.5753 14.7565 71.0462C15.229 71.5129 15.6481 71.6752 16 71.6752C16.3519 71.6752 16.771 71.5129 17.2435 71.0462C17.7203 70.5753 18.1956 69.8443 18.6163 68.862C19.4561 66.9009 20 64.1221 20 61.0002C20 57.8783 19.4561 55.0995 18.6163 53.1384C18.1956 52.1561 17.7203 51.4251 17.2435 50.9542C16.771 50.4875 16.3519 50.3252 16 50.3252C15.6481 50.3252 15.229 50.4875 14.7565 50.9542C14.2797 51.4251 13.8044 52.1561 13.3837 53.1384ZM13.3511 49.5312C14.075 48.8163 14.9712 48.3252 16 48.3252C17.0288 48.3252 17.9251 48.8163 18.6489 49.5312C19.3685 50.2419 19.9707 51.2206 20.4548 52.351C21.4246 54.6155 22 57.6741 22 61.0002C22 64.3263 21.4246 67.3849 20.4548 69.6493C19.9707 70.7798 19.3685 71.7585 18.6489 72.4692C17.925 73.1841 17.0288 73.6752 16 73.6752C14.9712 73.6752 14.075 73.1841 13.3511 72.4692C12.6315 71.7585 12.0293 70.7798 11.5452 69.6493C10.5754 67.3849 10 64.3263 10 61.0002C10 57.6741 10.5754 54.6155 11.5452 52.351C12.0293 51.2206 12.6315 50.2419 13.3511 49.5312Z" fill="#858584"/>
<path d="M54 64.5C54.8284 64.5 55.5 63.8284 55.5 63C55.5 62.1716 54.8284 61.5 54 61.5C53.1716 61.5 52.5 62.1716 52.5 63C52.5 63.8284 53.1716 64.5 54 64.5Z" fill="#858584"/>
<path d="M62 64.5C62.8284 64.5 63.5 63.8284 63.5 63C63.5 62.1716 62.8284 61.5 62 61.5C61.1716 61.5 60.5 62.1716 60.5 63C60.5 63.8284 61.1716 64.5 62 64.5Z" fill="#858584"/>
<path fill-rule="evenodd" clip-rule="evenodd" d="M57.9917 54.9996C55.8239 54.9836 53.6668 55.3055 51.5982 55.9539C51.0712 56.119 50.51 55.8257 50.3449 55.2987C50.1797 54.7717 50.473 54.2106 51 54.0454C53.2646 53.3356 55.6259 52.9828 57.9991 52.9996C60.3722 52.9828 62.7335 53.3356 64.9982 54.0454C65.5252 54.2106 65.8185 54.7717 65.6533 55.2987C65.4882 55.8257 64.927 56.119 64.4 55.9539C62.3314 55.3055 60.1743 54.9836 58.0065 54.9996H57.9917Z" fill="#858584"/>
<path fill-rule="evenodd" clip-rule="evenodd" d="M50.3449 66.7012C50.51 66.1742 51.0712 65.8809 51.5982 66.046C53.6668 66.6944 55.8239 67.0163 57.9917 67.0003H58.0065C60.1743 67.0163 62.3314 66.6944 64.4 66.046C64.927 65.8809 65.4882 66.1742 65.6533 66.7012C65.8185 67.2282 65.5252 67.7893 64.9982 67.9545C62.7335 68.6643 60.3722 69.0171 57.9991 69.0003C55.6259 69.0171 53.2646 68.6643 51 67.9545C50.473 67.7893 50.1797 67.2282 50.3449 66.7012Z" fill="#858584"/>
<path fill-rule="evenodd" clip-rule="evenodd" d="M62.2195 49.8112C62.6499 49.5685 63.1546 49.4927 63.6373 49.5981C64.9549 49.8837 66.2448 50.2842 67.4924 50.7952C67.7732 50.9035 68.0254 51.075 68.2294 51.2964C68.4357 51.5202 68.587 51.7889 68.6715 52.0811L72.9074 66.2255C73.0178 66.594 73.0204 66.9865 72.9147 67.3563C72.809 67.7262 72.5995 68.0581 72.3111 68.3126L72.3059 68.3171C70.2385 70.1161 67.4371 71.4777 64.2551 72.2577C63.8132 72.3703 63.3457 72.3265 62.9322 72.1336C62.5205 71.9414 62.1877 71.6132 61.9898 71.2044L60.4816 68.2129C60.2329 67.7197 60.4311 67.1184 60.9243 66.8698C61.4175 66.6211 62.0188 66.8194 62.2674 67.3125L63.7799 70.3125L63.781 70.3147C66.7189 69.5943 69.2131 68.3571 70.9931 66.8083L71.6495 67.5627L70.9879 66.8128C70.9897 66.8113 70.991 66.8092 70.9917 66.8069C70.9923 66.8046 70.9923 66.8022 70.9916 66.7999L66.7555 52.6547C66.752 52.6532 66.7485 52.6518 66.7449 52.6504C65.602 52.1815 64.4201 51.8141 63.2127 51.5525L63.2106 51.5521C63.2076 51.5514 63.2044 51.5519 63.2017 51.5534C63.1993 51.5547 63.1975 51.5568 63.1964 51.5594L62.2115 54.539C62.0381 55.0634 61.4725 55.348 60.9481 55.1747C60.4238 55.0013 60.1392 54.4357 60.3125 53.9114L61.3029 50.9152C61.4624 50.4471 61.7887 50.0541 62.2195 49.8112Z" fill="#858584"/>
<path fill-rule="evenodd" clip-rule="evenodd" d="M52.7982 51.5534C52.7955 51.5519 52.7924 51.5514 52.7894 51.5521L52.7872 51.5525C51.5799 51.8141 50.3979 52.1815 49.255 52.6504C49.2515 52.6518 49.248 52.6532 49.2444 52.6547L45.0084 66.7996C45.0077 66.8019 45.0076 66.8046 45.0083 66.8069C45.0089 66.809 45.01 66.8108 45.0115 66.8123C46.7912 68.3593 49.2836 69.5949 52.2189 70.3147L52.22 70.3125L53.7325 67.3125C53.9812 66.8194 54.5825 66.6211 55.0756 66.8698C55.5688 67.1184 55.767 67.7197 55.5184 68.2129L54.0101 71.2045C53.8123 71.6132 53.4795 71.9414 53.0677 72.1336C52.6542 72.3265 52.1868 72.3703 51.7448 72.2577C48.5629 71.4777 45.7615 70.1161 43.694 68.3171L43.6889 68.3126C43.4004 68.0581 43.1909 67.7262 43.0852 67.3563C42.9796 66.9865 42.9821 66.5942 43.0925 66.2258C43.0925 66.2259 43.0925 66.2257 43.0925 66.2258L47.3284 52.0812C47.4129 51.7889 47.5643 51.5202 47.7705 51.2964C47.9746 51.075 48.2268 50.9035 48.5076 50.7952C49.7555 50.2841 51.0458 49.8834 52.3637 49.5979C52.8461 49.4928 53.3504 49.5687 53.7805 49.8112C54.2113 50.0541 54.5375 50.4471 54.697 50.9152L54.7 50.9238L55.6874 53.9114C55.8608 54.4357 55.5762 55.0013 55.0518 55.1747C54.5274 55.348 53.9618 55.0634 53.7885 54.539L52.8036 51.5594C52.8025 51.5568 52.8006 51.5547 52.7982 51.5534Z" fill="#858584"/>
<path d="M54 64.5C54.8284 64.5 55.5 63.8284 55.5 63C55.5 62.1716 54.8284 61.5 54 61.5C53.1716 61.5 52.5 62.1716 52.5 63C52.5 63.8284 53.1716 64.5 54 64.5Z" fill="#858584"/>
<path d="M62 64.5C62.8284 64.5 63.5 63.8284 63.5 63C63.5 62.1716 62.8284 61.5 62 61.5C61.1716 61.5 60.5 62.1716 60.5 63C60.5 63.8284 61.1716 64.5 62 64.5Z" fill="#858584"/>
<path fill-rule="evenodd" clip-rule="evenodd" d="M57.9917 54.9996C55.8239 54.9836 53.6668 55.3055 51.5982 55.9539C51.0712 56.119 50.51 55.8257 50.3449 55.2987C50.1797 54.7717 50.473 54.2106 51 54.0454C53.2646 53.3356 55.6259 52.9828 57.9991 52.9996C60.3722 52.9828 62.7335 53.3356 64.9982 54.0454C65.5252 54.2106 65.8185 54.7717 65.6533 55.2987C65.4882 55.8257 64.927 56.119 64.4 55.9539C62.3314 55.3055 60.1743 54.9836 58.0065 54.9996H57.9917Z" fill="#858584"/>
<path fill-rule="evenodd" clip-rule="evenodd" d="M50.3449 66.7012C50.51 66.1742 51.0712 65.8809 51.5982 66.046C53.6668 66.6944 55.8239 67.0163 57.9917 67.0003H58.0065C60.1743 67.0163 62.3314 66.6944 64.4 66.046C64.927 65.8809 65.4882 66.1742 65.6533 66.7012C65.8185 67.2282 65.5252 67.7893 64.9982 67.9545C62.7335 68.6643 60.3722 69.0171 57.9991 69.0003C55.6259 69.0171 53.2646 68.6643 51 67.9545C50.473 67.7893 50.1797 67.2282 50.3449 66.7012Z" fill="#858584"/>
<path fill-rule="evenodd" clip-rule="evenodd" d="M62.2195 49.8112C62.6499 49.5685 63.1546 49.4927 63.6373 49.5981C64.9549 49.8837 66.2448 50.2842 67.4924 50.7952C67.7732 50.9035 68.0254 51.075 68.2294 51.2964C68.4357 51.5202 68.587 51.7889 68.6715 52.0811L72.9074 66.2255C73.0178 66.594 73.0204 66.9865 72.9147 67.3563C72.809 67.7262 72.5995 68.0581 72.3111 68.3126L72.3059 68.3171C70.2385 70.1161 67.4371 71.4777 64.2551 72.2577C63.8132 72.3703 63.3457 72.3265 62.9322 72.1336C62.5205 71.9414 62.1877 71.6132 61.9898 71.2044L60.4816 68.2129C60.2329 67.7197 60.4311 67.1184 60.9243 66.8698C61.4175 66.6211 62.0188 66.8194 62.2674 67.3125L63.7799 70.3125L63.781 70.3147C66.7189 69.5943 69.2131 68.3571 70.9931 66.8083L71.6495 67.5627L70.9879 66.8128C70.9897 66.8113 70.991 66.8092 70.9917 66.8069C70.9923 66.8046 70.9923 66.8022 70.9916 66.7999L66.7555 52.6547C66.752 52.6532 66.7485 52.6518 66.7449 52.6504C65.602 52.1815 64.4201 51.8141 63.2127 51.5525L63.2106 51.5521C63.2076 51.5514 63.2044 51.5519 63.2017 51.5534C63.1993 51.5547 63.1975 51.5568 63.1964 51.5594L62.2115 54.539C62.0381 55.0634 61.4725 55.348 60.9481 55.1747C60.4238 55.0013 60.1392 54.4357 60.3125 53.9114L61.3029 50.9152C61.4624 50.4471 61.7887 50.0541 62.2195 49.8112Z" fill="#858584"/>
<path fill-rule="evenodd" clip-rule="evenodd" d="M52.7982 51.5534C52.7955 51.5519 52.7924 51.5514 52.7894 51.5521L52.7872 51.5525C51.5799 51.8141 50.3979 52.1815 49.255 52.6504C49.2515 52.6518 49.248 52.6532 49.2444 52.6547L45.0084 66.7996C45.0077 66.8019 45.0076 66.8046 45.0083 66.8069C45.0089 66.809 45.01 66.8108 45.0115 66.8123C46.7912 68.3593 49.2836 69.5949 52.2189 70.3147L52.22 70.3125L53.7325 67.3125C53.9812 66.8194 54.5825 66.6211 55.0756 66.8698C55.5688 67.1184 55.767 67.7197 55.5184 68.2129L54.0101 71.2045C53.8123 71.6132 53.4795 71.9414 53.0677 72.1336C52.6542 72.3265 52.1868 72.3703 51.7448 72.2577C48.5629 71.4777 45.7615 70.1161 43.694 68.3171L43.6889 68.3126C43.4004 68.0581 43.1909 67.7262 43.0852 67.3563C42.9796 66.9865 42.9821 66.5942 43.0925 66.2258C43.0925 66.2259 43.0925 66.2257 43.0925 66.2258L47.3284 52.0812C47.4129 51.7889 47.5643 51.5202 47.7705 51.2964C47.9746 51.075 48.2268 50.9035 48.5076 50.7952C49.7555 50.2841 51.0458 49.8834 52.3637 49.5979C52.8461 49.4928 53.3504 49.5687 53.7805 49.8112C54.2113 50.0541 54.5375 50.4471 54.697 50.9152L54.7 50.9238L55.6874 53.9114C55.8608 54.4357 55.5762 55.0013 55.0518 55.1747C54.5274 55.348 53.9618 55.0634 53.7885 54.539L52.8036 51.5594C52.8025 51.5568 52.8006 51.5547 52.7982 51.5534Z" fill="#858584"/>
<path fill-rule="evenodd" clip-rule="evenodd" d="M97.5281 56.1183C97.8533 55.9443 98.2478 55.9634 98.5547 56.168L104.555 60.168C104.833 60.3534 105 60.6656 105 61C105 61.3344 104.833 61.6466 104.555 61.8321L98.5547 65.8321C98.2478 66.0366 97.8533 66.0557 97.5281 65.8817C97.203 65.7077 97 65.3688 97 65V57C97 56.6312 97.203 56.2923 97.5281 56.1183ZM99 58.8685V63.1315L102.197 61L99 58.8685Z" fill="#858584"/>
<path fill-rule="evenodd" clip-rule="evenodd" d="M99.9985 50.0498L99.9816 50.0498L99.9188 50.0498C99.8643 50.05 99.785 50.0504 99.6831 50.0514C99.4794 50.0536 99.1856 50.0585 98.8206 50.0695C98.0912 50.0913 97.0746 50.1375 95.9237 50.2347C93.6473 50.4268 90.7493 50.8257 88.5181 51.6782L88.5034 51.684C88.0651 51.8594 87.6742 52.1354 87.3622 52.4897C87.0502 52.8439 86.8258 53.2666 86.7071 53.7235L86.7061 53.7273C86.3947 54.9458 86 57.2055 86 60.9999C86 64.7942 86.3947 67.0539 86.7061 68.2725L86.7071 68.2762C86.8258 68.7332 87.0502 69.1558 87.3622 69.5101C87.6742 69.8643 88.0651 70.1403 88.5034 70.3157L88.5181 70.3215C90.7493 71.174 93.6473 71.5729 95.9237 71.7651C97.0746 71.8622 98.0912 71.9084 98.8206 71.9303C99.1856 71.9412 99.4794 71.9461 99.6831 71.9483C99.785 71.9494 99.8643 71.9498 99.9188 71.9499L99.9816 71.9499L99.9985 71.9499H100.001L100.018 71.9499L100.081 71.9499C100.136 71.9498 100.215 71.9494 100.317 71.9483C100.521 71.9461 100.814 71.9412 101.179 71.9303C101.909 71.9084 102.925 71.8622 104.076 71.7651C106.353 71.5729 109.251 71.174 111.482 70.3215L111.497 70.3157C111.935 70.1403 112.326 69.8643 112.638 69.5101C112.95 69.1558 113.174 68.7332 113.293 68.2762L113.294 68.2725C113.605 67.0539 114 64.7942 114 60.9999C114 57.2055 113.605 54.9458 113.294 53.7273L113.293 53.7235C113.174 53.2666 112.95 52.8439 112.638 52.4897C112.326 52.1354 111.935 51.8594 111.497 51.684L111.482 51.6782C109.251 50.8257 106.353 50.4268 104.076 50.2347C102.925 50.1375 101.909 50.0913 101.179 50.0695C100.814 50.0585 100.521 50.0536 100.317 50.0514C100.215 50.0504 100.136 50.05 100.081 50.0498L100.018 50.0498L100.001 50.0498H99.9985ZM99.9947 69.9499L100.005 69.9498L100.009 69.9499L100.022 69.9499L100.077 69.9499C100.126 69.9498 100.2 69.9494 100.296 69.9484C100.488 69.9464 100.769 69.9417 101.119 69.9312C101.822 69.9101 102.801 69.8656 103.908 69.7722C106.144 69.5834 108.804 69.2018 110.76 68.4565C110.904 68.3974 111.034 68.3056 111.137 68.1882C111.241 68.0695 111.317 67.928 111.357 67.7751C111.62 66.7429 112 64.6529 112 60.9999C112 57.3468 111.62 55.2568 111.357 54.2246C111.317 54.0717 111.241 53.9302 111.137 53.8115C111.034 53.6941 110.904 53.6023 110.76 53.5433C108.804 52.7979 106.144 52.4164 103.908 52.2276C102.801 52.1341 101.822 52.0896 101.119 52.0686C100.769 52.058 100.488 52.0534 100.296 52.0513C100.2 52.0503 100.126 52.0499 100.077 52.0498L100.022 52.0498L100.009 52.0498L100.006 52.0498L99.9946 52.0499L99.9914 52.0498L99.9783 52.0498L99.9233 52.0498C99.8741 52.0499 99.8004 52.0503 99.7043 52.0513C99.5123 52.0534 99.2314 52.058 98.8806 52.0686C98.1784 52.0896 97.1989 52.1341 96.0919 52.2276C93.8559 52.4164 91.1959 52.7979 89.2404 53.5433C89.0956 53.6023 88.9664 53.6941 88.8631 53.8115C88.7586 53.9302 88.6833 54.0717 88.6433 54.2246C88.3797 55.2569 88 57.3468 88 60.9999C88 64.6529 88.3797 66.7429 88.6433 67.7751C88.6833 67.928 88.7586 68.0695 88.8631 68.1882C88.9664 68.3056 89.0956 68.3974 89.2404 68.4565C91.1959 69.2018 93.8559 69.5834 96.0919 69.7722C97.1989 69.8656 98.1784 69.9101 98.8806 69.9312C99.2314 69.9417 99.5123 69.9464 99.7043 69.9484C99.8004 69.9494 99.8741 69.9498 99.9233 69.9499L99.9783 69.9499L99.9914 69.9499L99.9947 69.9499Z" fill="#858584"/>
<path d="M142.001 56.0005C142.001 53.2505 144.313 50.963 147.063 51.0005C148.026 51.0116 148.966 51.3006 149.768 51.8328C150.571 52.365 151.203 53.1177 151.588 54.0005H156.001L151.963 58.038C151.703 62.0937 149.907 65.8979 146.942 68.6773C143.977 71.4566 140.065 73.0025 136.001 73.0005C132.001 73.0005 131.001 71.5005 131.001 71.5005C131.001 71.5005 135.001 70.0005 137.001 67.0005C137.001 67.0005 129.001 63.0005 131.001 52.0005C131.001 52.0005 136.001 57.0005 142.001 58.0005V56.0005Z" stroke="#858584" stroke-width="2" stroke-linecap="round" stroke-linejoin="round"/>
<path fill-rule="evenodd" clip-rule="evenodd" d="M184 57C181.791 57 180 58.7909 180 61C180 63.2091 181.791 65 184 65C186.209 65 188 63.2091 188 61C188 58.7909 186.209 57 184 57ZM178 61C178 57.6863 180.686 55 184 55C187.314 55 190 57.6863 190 61C190 64.3137 187.314 67 184 67C180.686 67 178 64.3137 178 61Z" fill="#858584"/>
<path fill-rule="evenodd" clip-rule="evenodd" d="M178.5 50.5C175.739 50.5 173.5 52.7386 173.5 55.5V66.5C173.5 69.2614 175.739 71.5 178.5 71.5H189.5C192.261 71.5 194.5 69.2614 194.5 66.5V55.5C194.5 52.7386 192.261 50.5 189.5 50.5H178.5ZM171.5 55.5C171.5 51.634 174.634 48.5 178.5 48.5H189.5C193.366 48.5 196.5 51.634 196.5 55.5V66.5C196.5 70.366 193.366 73.5 189.5 73.5H178.5C174.634 73.5 171.5 70.366 171.5 66.5V55.5Z" fill="#858584"/>
<path d="M190.5 56C191.328 56 192 55.3284 192 54.5C192 53.6716 191.328 53 190.5 53C189.672 53 189 53.6716 189 54.5C189 55.3284 189.672 56 190.5 56Z" fill="#858584"/>
</svg>
